<svg xmlns="http://www.w3.org/2000/svg" width="776.188" height="422.593" viewBox="0 0 776.188 422.593">
  <g id="Group_552" data-name="Group 552" transform="translate(0 -346.971)">
    <path id="Path_162" data-name="Path 162" d="M864.8,414.888,932.28,256.433H217.435V414.888Z" transform="translate(-217.433 354.675)" fill="#a7a9ac"/>
    <path id="Path_163" data-name="Path 163" d="M406.67,371.209a7.473,7.473,0,0,0,.175-1.376v-5.709a2.1,2.1,0,0,0,0-1.226,2.554,2.554,0,0,0-1.779-1.509v-3.209a1.374,1.374,0,0,0,0-.8c-.324-.975-1.776-1.4-3.463-1.118V318.2a4.527,4.527,0,0,0,.635-.4l0,0a7.547,7.547,0,0,0,2.647-5.76l0-8.1a4.471,4.471,0,0,0-1.1-3.2V247.69A56.28,56.28,0,0,0,411,223.811c2.748-32.429-11.237-50.144-11.237-50.144l-1.446-.089-2.713,2.469a29.754,29.754,0,0,0-1.776-2.659l-1.449-.092-35.218,32.063-.019.318L268.394,222.54l.486,5.719h-1.331l0,.032a1.817,1.817,0,0,0-1.519,1.951l.448,5.121-4.213-.13a1.112,1.112,0,0,0-.6-.019h-.025l0,.006a1.135,1.135,0,0,0-.416.207,1.109,1.109,0,0,0-.372,1.118l8.673,41.391-3.206,1.433-.518-.712a1.98,1.98,0,0,0-2.268-.816,1.8,1.8,0,0,0-1.849.4,3.024,3.024,0,0,0-.543,3.4l.016.032-12.038,5.382a1.6,1.6,0,0,0-1.331.874,1.834,1.834,0,0,0-.073,1.331l-2.932.613v1l.651.327-4.7.81,4.994,3.5-.038.009-4.956-3.514v4.883l-7.571,2.094v14.4l10.91,11.288,0,.232-.051.054.048.044-.01,1,.845.009,0-.226,2.459,2.3,1.522,1.576.044,1.8.842-.022-.019-.877,40.355,41.769,8.146-4.009.06,2.9,1.268-.029-.051-2.367,7.65-3.5.181,1.808,1.261-.127-.365-3.612,57.432-28.26V315.155l-34.983-9.646-2.154-15.971.073-.016-.184-.823-3.876-28.765.016,0-.13-.832-2.933-21.769-.534.01a.277.277,0,0,0-.038-.06l3.5-.086v-3.438l-7.438-.035v-3.355l40.422-2.691L377.2,265.469l1.446.092a27,27,0,0,0,3.438-1.824l1.055,2.014,1.446.089A41.255,41.255,0,0,0,398.311,255.3v47.6a7.966,7.966,0,0,0-.925,3.628v8.1c0,2.662,1.487,4.21,3.285,3.9V356.48c-.048.013-.1.022-.143.038-2,.664-3.333,2.059-3.145,3.206,0,.054-.006.143-.009.276l-2.11-1.439a2.112,2.112,0,1,0-3.447,1.849v7.434a1.183,1.183,0,0,0,2.367,0v-7.158l3.164,2.164v.28c-1.29,1.01-1.989,2.23-1.76,3.295-.022.524-.045,2.23-.051,6.84-.019.067-.051.13-.067.2a2.967,2.967,0,0,0,.079,1.585,1.751,1.751,0,0,0,.086.48,2,2,0,0,0,.648.915,11.689,11.689,0,0,0,6.567,3.781c4.7,1.115,9.007-.1,9.63-2.72C413.031,375.19,410.508,372.556,406.67,371.209ZM320.05,239.042l.667,4.95-.54.038-4.318-2.485,3.434-2.494Zm-37.6.562,10.129,38.681-.34,2.554-3.949-4.511a3.07,3.07,0,0,0-5.4,1.277l-.521.111-.6-1.738-5.84-1.388-3.739.674-8.26-35.285C265.255,240.119,269.607,240.335,282.446,239.6Zm31.863,2.024-3.682,2.672.149-4.705Zm-8.33-2.58-2.38,1.531-2.116-1.747Zm1.4.1-.14,4.442-2.961-2.443Zm-.175,5.512,0,.172-7.6-.67,3.936-2.535Zm1.166,17.48L307.967,275l-.022,0,.4-12.848Zm-5.3,32.149.442-1.3,1.976.686-2.567.95C302.973,294.514,303.03,294.406,303.072,294.288Zm2.65-2.319-1.662-.578.505-1.49,1.163,1.792Zm-5.925-8.893-1.163.353,1.144-.905.315.486C299.993,283.032,299.894,283.048,299.8,283.076Zm.207,13.97,1.512-.867a3.372,3.372,0,0,0,.394-.276l3.73-1.379-.127,4.041Zm4.909-8.162.467-1.373a3.459,3.459,0,0,0-3.93-4.515,3.119,3.119,0,0,0-.391-.051l-.616-.95,5.735-4.55-.4,12.766Zm1.385-15.218-4.422-6.424,4.74-3.724Zm-.086,2.672-6.233,4.947-5.061-7.8.006-.032,11.3,2.672Zm-6.9,5.474-2.059,1.633-2.488-8.638Zm7.876,17.214.162-5.134.022-.01-.162,5.15Zm.226-6.465-.022-.01.5-15.819.022,0-.5,15.828Zm2.631-29.8,5.992,4.172-6.354,7.33Zm-1.652-2.014.445-14.16.025-.025-.445,14.183Zm-1.614-2.472-3.657-5.852,3.971-4.051Zm2.113-13.325.216-6.917.025-.016-.219,6.951Zm-9.353-6.211.537.025,2.78,2.294-3.965,2.554Zm7.612,7.784-.019.6-4.47,4.562-3.682-5.884Zm-.419,13.268-.025.82-9.661-1.982,5.468-5.582Zm-.079,2.532,0,.1-5.258,4.124-4.248-6.17Zm-.4,12.769-.006.175-11.212-2.653v-.006l6.173-4.845Zm-22.764,4.483,2.8,4.683-1.754-.324-1.487-4.267Zm25.4,19.92.165-5.274,8.584,3.981-2.821,2.926Zm.724-23.059.038-.006,7.5,5.643-8.025,9.77Zm1.185-.2,12.978-2.221-6.084,7.406Zm-.257-1.671,6.192-7.142,7.015,4.88Zm6.052-8.27-6-4.178,11.126-1.735Zm-6.033-19.857.051,0,4.969,5.163-5.43,7.8Zm-12.07.181,3.562,5.693-5,5.1Zm2.237,20.451-5.535,4.343,1.382-10.376Zm25.468,37.2.445-.124-.178.2Zm-3.145-.864-7.3-2.014,2.7-2.809,8.2,3.8Zm-4.791-5.843-8.283-3.841,15.294-3.438Zm-8.121-5.611,7.695-9.369,7.822,5.884Zm8.232-10.021,6.408-7.8,1.89,14.043Zm-1.077-15.148,5.62-6.484,1.547,11.472Zm-6.831-6.354,5.719-8.21,6.125,6.364Zm5.611-9.538-4.368-4.537,7.936-.585Zm-4.511-6.221,3.549-2.577,3.568,2.052Zm3.5-3.581-3.345-1.925,6.116-.086Zm-10.217-7.565v.184l-9.716.051V236.9l2.932.137L295.126,259.1l-.168.829.057.01-1.43,10.764-9-31.259c-.8-4.486-1.722-3.565-1.722-3.565l-7.974-.248-.81-3.133h10.986l19.777-1.318Zm83.214,12.27-.267.3c-.232.257-.467.508-.7.753-.083.083-.162.172-.245.254-.3.308-.6.61-.9.9l-.133.121c-.257.245-.515.48-.769.708-.089.076-.178.156-.267.232-.229.2-.454.394-.68.578-.067.054-.133.111-.2.165-.261.213-.518.413-.769.607l-8.937-17.1c.127-.327.248-.661.372-1l14.411,12.407C388.669,245.085,388.36,245.444,388.056,245.79Zm5.264-56.13c.165.381.337.794.508,1.22.051.127.1.261.153.391.124.318.248.642.372.979.057.162.118.33.178.5q.181.515.362,1.058c.054.165.111.327.165.5.165.521.33,1.058.492,1.62l.013.044c.165.575.324,1.176.48,1.792.048.188.092.381.137.572.108.445.213.9.315,1.369.051.232.1.467.149.7.1.473.191.959.28,1.452.038.226.083.445.121.674.124.721.241,1.461.343,2.227l-20.219,3.914c-.172-2.179-.435-4.238-.769-6.16l16.616-13.519c.092.2.178.384.27.594Zm4.035,35.32c-.073.5-.146,1.007-.235,1.493-.057.315-.124.613-.184.921-.086.416-.165.832-.257,1.233-.076.33-.162.645-.241.963-.092.365-.181.731-.283,1.083-.092.33-.194.651-.292.972s-.2.651-.3.969-.226.642-.34.96c-.108.3-.213.591-.324.877-.029.076-.057.146-.089.219l-17.925-12.083q.133-1.048.229-2.145c.146-1.735.229-3.412.257-5.036l20.661-1.468c.006.429.013.858.009,1.3,0,.254-.013.518-.016.775-.006.448-.013.893-.025,1.347-.013.362-.035.734-.051,1.1s-.029.724-.051,1.093c-.044.747-.1,1.5-.162,2.275q-.1,1.215-.257,2.38C397.441,224.472,397.393,224.723,397.355,224.98ZM269.636,278.441l.01.048-.677,2.084-1.535.327-.807-1.112Zm-6.945,6.507-2.809,5.122-3.987-.674-1.528.264-1.436-.432.01-.022a.207.207,0,0,0-.175-.238l-.979-.149a1.9,1.9,0,0,0-1.255-1.833l10.843-4.848Zm44.359,79.046-.051.022.051-.025Zm20.321-59.405.785-.88.588-.165.2,1.481Zm1.144-2.735-.62.175-8.826-4.1,7.7-7.99.137-.032Zm-5.96-44.238-5.884-6.106,4.057-5.824.216-.016Zm-3.984-20.244-4.089.06,4.508-.108Zm-6.84-3.676-1.6-.006v-2.866l1.6-.1Zm87.513,67.837V254.215a48.428,48.428,0,0,0,3.616-5v50.932a2.917,2.917,0,0,0-2.745.562A5.567,5.567,0,0,0,399.242,301.532Z" transform="translate(-183.184 173.676)" fill="#d1d3d4"/>
    <path id="Path_164" data-name="Path 164" d="M326.824,292.722S557.6,177.082,795.553,200.5c95.424,9.388,198.069,35.253,198.069,35.253L932.279,385.02H217.434Z" transform="translate(-217.434 226.088)" fill="#e6e7e8"/>
    <path id="Path_165" data-name="Path 165" d="M458.852,371.209a7.608,7.608,0,0,0,.172-1.376v-5.709a2.044,2.044,0,0,0,0-1.226,2.542,2.542,0,0,0-1.776-1.509v-3.209a1.43,1.43,0,0,0,0-.8c-.324-.975-1.776-1.4-3.466-1.118V318.2a4.374,4.374,0,0,0,.639-.4v0a7.537,7.537,0,0,0,2.647-5.76v-8.1a4.5,4.5,0,0,0-1.1-3.2V247.69a56.282,56.282,0,0,0,7.209-23.879c2.745-32.429-11.237-50.144-11.237-50.144l-1.449-.089-2.713,2.469A28.9,28.9,0,0,0,446,173.387l-1.446-.092L409.34,205.358l-.019.318L320.576,222.54l.486,5.719h-1.331l0,.032a1.817,1.817,0,0,0-1.519,1.951l.445,5.121-4.21-.13a1.124,1.124,0,0,0-.607-.019h-.022l0,.006a1.09,1.09,0,0,0-.791,1.325l8.677,41.391-3.209,1.433-.515-.712a1.982,1.982,0,0,0-2.268-.816,1.8,1.8,0,0,0-1.849.4,3.024,3.024,0,0,0-.543,3.4l.016.032L301.3,287.057a1.613,1.613,0,0,0-1.331.874,1.833,1.833,0,0,0-.07,1.331l-2.932.613v1l.651.327-4.7.81,4.991,3.5-.035.009-4.956-3.514v4.883l-7.571,2.094v14.4l10.907,11.288,0,.232-.051.054.051.044-.013,1,.845.009,0-.226,2.462,2.3,1.519,1.576.045,1.8.845-.022-.022-.877,40.359,41.769,8.143-4.009.06,2.9,1.268-.029-.048-2.367,7.647-3.5.184,1.808,1.261-.127-.365-3.612,57.432-28.26V315.155l-34.986-9.646-2.151-15.971.073-.016-.187-.823-3.876-28.765.019,0-.13-.832-2.932-21.769-.534.01a.284.284,0,0,0-.041-.06l3.508-.086v-3.438l-7.438-.035v-3.355l40.422-2.691,19.761,37.795,1.446.092a27.01,27.01,0,0,0,3.438-1.824l1.052,2.014,1.449.089A41.255,41.255,0,0,0,450.493,255.3v47.6a7.967,7.967,0,0,0-.925,3.628v8.1c0,2.662,1.487,4.21,3.285,3.9V356.48c-.048.013-.1.022-.143.038-2,.664-3.333,2.059-3.145,3.206,0,.054-.006.143-.01.276l-2.11-1.439A2.112,2.112,0,1,0,444,360.41v7.434a1.183,1.183,0,0,0,2.367,0v-7.158l3.164,2.164v.28c-1.29,1.01-1.989,2.23-1.76,3.295-.022.524-.045,2.23-.051,6.84-.022.067-.051.13-.067.2a2.968,2.968,0,0,0,.079,1.585,1.877,1.877,0,0,0,.083.48,2.033,2.033,0,0,0,.651.915,11.679,11.679,0,0,0,6.564,3.781c4.7,1.115,9.01-.1,9.633-2.72C465.213,375.19,462.69,372.556,458.852,371.209Zm-86.62-132.167.667,4.95-.54.038-4.318-2.485,3.434-2.494Zm-37.607.562,10.132,38.681-.34,2.554-3.949-4.511a3.07,3.07,0,0,0-5.4,1.277l-.521.111-.607-1.738-5.836-1.388-3.739.674L316.1,239.979C317.433,240.119,321.786,240.335,334.625,239.6Zm31.866,2.024-3.682,2.672.146-4.705Zm-8.333-2.58-2.376,1.531-2.116-1.747Zm1.407.1-.14,4.442-2.961-2.443Zm-.175,5.512-.006.172-7.6-.67,3.933-2.535Zm1.166,17.48L360.149,275l-.022,0,.4-12.848Zm-5.3,32.149.442-1.3,1.976.686-2.57.95A3.568,3.568,0,0,0,355.254,294.288Zm2.646-2.319-1.662-.578.508-1.49,1.163,1.792Zm-5.922-8.893-1.163.353,1.141-.905.318.486C352.175,283.032,352.076,283.048,351.978,283.076Zm.206,13.97,1.512-.867a3.363,3.363,0,0,0,.394-.276l3.73-1.379-.127,4.041Zm4.909-8.162.467-1.373A3.459,3.459,0,0,0,353.63,283a3.279,3.279,0,0,0-.391-.051l-.616-.95,5.735-4.55-.4,12.766Zm1.385-15.218-4.426-6.424,4.743-3.724Zm-.086,2.672-6.233,4.947-5.061-7.8,0-.032,11.3,2.672Zm-6.9,5.474-2.062,1.633-2.488-8.638Zm7.876,17.214.159-5.134.025-.01-.162,5.15Zm.226-6.465-.022-.01.5-15.819.025,0-.5,15.828Zm2.631-29.8,5.992,4.172-6.354,7.33Zm-1.652-2.014.445-14.16.026-.025-.448,14.183Zm-1.614-2.472-3.66-5.852,3.971-4.051Zm2.11-13.325.219-6.917.025-.016-.219,6.951Zm-9.35-6.211.537.025,2.777,2.294-3.962,2.554Zm7.612,7.784-.019.6-4.473,4.562-3.682-5.884Zm-.419,13.268-.025.82-9.661-1.982,5.468-5.582Zm-.079,2.532,0,.1-5.258,4.124-4.248-6.17Zm-.4,12.769,0,.175-11.212-2.653v-.006l6.173-4.845Zm-22.764,4.483,2.805,4.683-1.754-.324-1.49-4.267Zm25.4,19.92.165-5.274,8.581,3.981L367,301.128Zm.724-23.059.038-.006,7.5,5.643-8.025,9.77Zm1.182-.2,12.982-2.221-6.084,7.406Zm-.254-1.671,6.192-7.142,7.012,4.88Zm6.052-8.27-6-4.178,11.126-1.735Zm-6.036-19.857.051,0,4.972,5.163-5.43,7.8Zm-12.067.181,3.561,5.693-5,5.1Zm2.237,20.451-5.535,4.343,1.379-10.376Zm25.464,37.2.448-.124-.181.2Zm-3.142-.864-7.3-2.014,2.7-2.809,8.2,3.8Zm-4.791-5.843-8.286-3.841,15.294-3.438Zm-8.124-5.611,7.695-9.369,7.825,5.884Zm8.232-10.021,6.411-7.8,1.89,14.043Zm-1.077-15.148,5.624-6.484,1.547,11.472Zm-6.828-6.354,5.716-8.21,6.125,6.364Zm5.611-9.538-4.368-4.537,7.936-.585Zm-4.511-6.221,3.549-2.577,3.565,2.052Zm3.495-3.581-3.342-1.925,6.113-.086Zm-10.214-7.565v.184l-9.715.051V236.9l2.932.137L347.308,259.1l-.172.829.06.01L345.764,270.7l-9-31.259c-.8-4.486-1.719-3.565-1.719-3.565l-7.974-.248-.813-3.133h10.986l19.78-1.318Zm83.211,12.27c-.089.1-.175.2-.264.3-.235.257-.467.508-.7.753-.083.083-.165.172-.245.254-.3.308-.6.61-.9.9l-.133.121c-.257.245-.515.48-.769.708-.089.076-.178.156-.267.232-.229.2-.457.394-.68.578-.067.054-.133.111-.2.165-.26.213-.515.413-.766.607l-8.94-17.1c.13-.327.251-.661.372-1l14.415,12.407Q440.7,245.27,440.234,245.79Zm5.264-56.13c.168.381.34.794.512,1.22.051.127.1.261.152.391.121.318.245.642.369.979.06.162.121.33.181.5q.181.515.362,1.058c.054.165.108.327.162.5.168.521.333,1.058.5,1.62l.013.044c.165.575.324,1.176.48,1.792.044.188.089.381.137.572.108.445.213.9.315,1.369.051.232.1.467.149.7.1.473.188.959.276,1.452.041.226.083.445.124.674.121.721.238,1.461.343,2.227l-20.222,3.914c-.168-2.179-.432-4.238-.769-6.16L445.2,188.99c.089.2.178.384.27.594Zm4.038,35.32c-.076.5-.149,1.007-.235,1.493-.057.315-.124.613-.187.921-.083.416-.162.832-.254,1.233-.076.33-.162.645-.241.963-.092.365-.184.731-.283,1.083-.092.33-.194.651-.292.972s-.2.651-.305.969-.222.642-.337.96c-.108.3-.213.591-.324.877-.029.076-.06.146-.089.219l-17.925-12.083q.133-1.048.226-2.145c.149-1.735.232-3.412.261-5.036l20.661-1.468c0,.429.009.858.006,1.3,0,.254-.01.518-.013.775-.01.448-.013.893-.029,1.347-.01.362-.032.734-.048,1.1s-.029.724-.051,1.093c-.044.747-.1,1.5-.162,2.275-.07.81-.159,1.6-.26,2.38C449.62,224.472,449.575,224.723,449.537,224.98ZM321.815,278.441l.01.048-.674,2.084-1.538.327-.807-1.112Zm-6.942,6.507-2.812,5.122-3.987-.674-1.525.264-1.439-.432.013-.022a.206.206,0,0,0-.178-.238l-.978-.149a1.9,1.9,0,0,0-1.255-1.833l10.847-4.848Zm44.359,79.046-.051.022.051-.025Zm20.321-59.405.785-.88.585-.165.2,1.481Zm1.144-2.735-.62.175-8.826-4.1,7.7-7.99.137-.032Zm-5.963-44.238-5.881-6.106,4.054-5.824.219-.016Zm-3.981-20.244-4.092.06,4.511-.108Zm-6.84-3.676-1.6-.006v-2.866l1.6-.1Zm87.51,67.837V254.215a47.983,47.983,0,0,0,3.619-5v50.932a2.918,2.918,0,0,0-2.745.562A5.588,5.588,0,0,0,451.421,301.532Z" transform="translate(-69.58 173.676)" fill="#d1d3d4"/>
    <path id="Path_166" data-name="Path 166" d="M511.034,371.209a7.61,7.61,0,0,0,.172-1.376v-5.709a2.044,2.044,0,0,0,0-1.226,2.542,2.542,0,0,0-1.776-1.509v-3.209a1.43,1.43,0,0,0,0-.8c-.324-.975-1.776-1.4-3.466-1.118V318.2a4.348,4.348,0,0,0,.635-.4l0,0a7.548,7.548,0,0,0,2.646-5.76l0-8.1a4.471,4.471,0,0,0-1.1-3.2V247.69a56.282,56.282,0,0,0,7.209-23.879c2.748-32.429-11.234-50.144-11.234-50.144l-1.449-.089-2.713,2.469a28.9,28.9,0,0,0-1.776-2.659l-1.445-.092-35.218,32.063-.019.318L372.758,222.54l.486,5.719h-1.331l0,.032a1.819,1.819,0,0,0-1.522,1.951l.448,5.121-4.21-.13a1.124,1.124,0,0,0-.607-.019H366l0,.006a1.09,1.09,0,0,0-.791,1.325l8.674,41.391-3.206,1.433-.515-.712a1.983,1.983,0,0,0-2.268-.816,1.8,1.8,0,0,0-1.849.4,3.013,3.013,0,0,0-.543,3.4l.016.032-12.041,5.382a1.609,1.609,0,0,0-1.331.874,1.849,1.849,0,0,0-.073,1.331l-2.929.613v1l.648.327-4.7.81,4.991,3.5-.035.009L345.1,292.01v4.883l-7.571,2.094v14.4l10.907,11.288,0,.232-.051.054.051.044-.013,1,.845.009,0-.226,2.462,2.3,1.519,1.576.045,1.8.845-.022-.022-.877,40.359,41.769,8.143-4.009.06,2.9,1.268-.029-.051-2.367,7.65-3.5.184,1.808,1.258-.127-.362-3.612,57.432-28.26V315.155l-34.986-9.646-2.151-15.971.07-.016-.184-.823-3.876-28.765.019,0-.13-.832-2.932-21.769-.537.01a.277.277,0,0,0-.038-.06l3.507-.086v-3.438l-7.441-.035v-3.355l40.425-2.691,19.758,37.795,1.449.092a27,27,0,0,0,3.438-1.824l1.052,2.014,1.446.089A41.247,41.247,0,0,0,502.675,255.3v47.6a7.928,7.928,0,0,0-.925,3.628v8.1c0,2.662,1.487,4.21,3.285,3.9V356.48c-.048.013-.1.022-.143.038-2,.664-3.336,2.059-3.148,3.206,0,.054-.006.143-.01.276l-2.106-1.439a2.114,2.114,0,1,0-3.447,1.849v7.434a1.182,1.182,0,1,0,2.364,0v-7.158l3.168,2.164,0,.28c-1.287,1.01-1.989,2.23-1.76,3.295-.022.524-.045,2.23-.048,6.84-.022.067-.051.13-.067.2a2.967,2.967,0,0,0,.076,1.585,1.88,1.88,0,0,0,.086.48,2.026,2.026,0,0,0,.648.915,11.7,11.7,0,0,0,6.567,3.781c4.7,1.115,9.01-.1,9.63-2.72C517.391,375.19,514.872,372.556,511.034,371.209ZM424.411,239.042l.667,4.95-.537.038-4.318-2.485,3.434-2.494Zm-37.6.562,10.129,38.681-.337,2.554-3.949-4.511a3.07,3.07,0,0,0-5.4,1.277l-.521.111-.607-1.738-5.836-1.388-3.743.674-8.26-35.285C369.615,240.119,373.968,240.335,386.807,239.6Zm31.863,2.024-3.682,2.672.149-4.705Zm-8.33-2.58-2.376,1.531-2.116-1.747Zm1.4.1-.14,4.442-2.958-2.443Zm-.172,5.512-.006.172-7.6-.67,3.933-2.535Zm1.163,17.48-.4,12.864-.025,0,.407-12.848Zm-5.3,32.149.445-1.3,1.976.686-2.57.95A3.547,3.547,0,0,0,407.432,294.288Zm2.65-2.319-1.662-.578.508-1.49,1.163,1.792Zm-5.922-8.893-1.163.353,1.141-.905.318.486C404.357,283.032,404.255,283.048,404.16,283.076Zm.206,13.97,1.509-.867a3.153,3.153,0,0,0,.4-.276l3.73-1.379-.127,4.041Zm4.909-8.162.467-1.373a3.459,3.459,0,0,0-3.93-4.515,3.28,3.28,0,0,0-.391-.051l-.62-.95,5.738-4.55-.4,12.766Zm1.382-15.218-4.422-6.424,4.743-3.724Zm-.083,2.672-6.233,4.947-5.061-7.8,0-.032,11.3,2.672Zm-6.9,5.474-2.062,1.633-2.488-8.638Zm7.873,17.214.162-5.134.025-.01-.162,5.15Zm.226-6.465-.022-.01.5-15.819.025,0-.5,15.828Zm2.631-29.8,5.992,4.172-6.354,7.33Zm-1.652-2.014.448-14.16.025-.025-.448,14.183Zm-1.611-2.472-3.66-5.852,3.971-4.051Zm2.11-13.325.219-6.917.022-.016-.219,6.951ZM403.9,238.74l.54.025,2.777,2.294-3.965,2.554Zm7.612,7.784-.019.6-4.47,4.562L403.34,245.8Zm-.416,13.268-.025.82-9.665-1.982,5.471-5.582Zm-.079,2.532,0,.1-5.258,4.124-4.248-6.17Zm-.4,12.769-.006.175-11.212-2.653,0-.006,6.17-4.845Zm-22.764,4.483,2.805,4.683-1.757-.324-1.487-4.267Zm25.4,19.92.168-5.274L422,298.2l-2.821,2.926Zm.728-23.059.038-.006,7.5,5.643-8.025,9.77Zm1.182-.2,12.979-2.221-6.084,7.406Zm-.257-1.671,6.2-7.142,7.012,4.88Zm6.052-8.27-6-4.178,11.126-1.735Zm-6.033-19.857.051,0,4.972,5.163-5.43,7.8Zm-12.067.181,3.558,5.693-4.994,5.1Zm2.234,20.451-5.531,4.343,1.379-10.376Zm25.467,37.2.445-.124-.178.2Zm-3.142-.864-7.307-2.014,2.7-2.809,8.2,3.8Zm-4.794-5.843-8.283-3.841,15.295-3.438Zm-8.121-5.611,7.695-9.369,7.822,5.884Zm8.232-10.021,6.408-7.8,1.893,14.043Zm-1.077-15.148,5.624-6.484,1.544,11.472Zm-6.828-6.354,5.715-8.21,6.125,6.364Zm5.611-9.538-4.368-4.537,7.933-.585Zm-4.512-6.221,3.549-2.577,3.565,2.052Zm3.495-3.581-3.345-1.925,6.116-.086Zm-10.214-7.565v.184l-9.716.051V236.9l2.932.137L399.49,259.1l-.172.829.057.01-1.43,10.764-9-31.259c-.8-4.486-1.719-3.565-1.719-3.565l-7.974-.248-.813-3.133h10.986l19.781-1.318Zm83.211,12.27c-.089.1-.178.2-.264.3-.235.257-.467.508-.7.753-.079.083-.162.172-.241.254-.3.308-.6.61-.905.9l-.13.121c-.26.245-.518.48-.772.708-.089.076-.175.156-.264.232-.229.2-.457.394-.683.578-.064.054-.13.111-.2.165-.26.213-.515.413-.769.607l-8.937-17.1c.127-.327.251-.661.372-1l14.411,12.407Q492.877,245.27,492.416,245.79Zm5.264-56.13c.168.381.337.794.508,1.22.051.127.1.261.153.391.124.318.248.642.372.979.06.162.121.33.181.5.121.343.241.7.359,1.058.057.165.111.327.165.5.168.521.334,1.058.492,1.62l.016.044c.162.575.321,1.176.477,1.792.048.188.092.381.14.572.108.445.213.9.315,1.369.048.232.1.467.146.7.1.473.191.959.28,1.452.041.226.083.445.121.674.124.721.242,1.461.346,2.227l-20.222,3.914c-.172-2.179-.432-4.238-.769-6.16l16.619-13.519c.089.2.178.384.27.594Zm4.038,35.32c-.076.5-.149,1.007-.235,1.493-.057.315-.127.613-.188.921-.083.416-.165.832-.257,1.233-.076.33-.159.645-.241.963-.092.365-.181.731-.28,1.083-.1.33-.194.651-.292.972s-.2.651-.3.969-.226.642-.34.96c-.1.3-.21.591-.321.877-.029.076-.06.146-.089.219l-17.928-12.083c.089-.7.168-1.414.229-2.145q.219-2.6.26-5.036l20.661-1.468c0,.429.01.858.006,1.3,0,.254-.009.518-.016.775-.006.448-.01.893-.025,1.347-.013.362-.032.734-.051,1.1s-.029.724-.048,1.093c-.044.747-.1,1.5-.165,2.275-.067.81-.156,1.6-.257,2.38C501.8,224.472,501.757,224.723,501.719,224.98ZM374,278.441l.009.048-.677,2.084-1.535.327-.807-1.112Zm-6.942,6.507-2.812,5.122-3.987-.674-1.525.264-1.439-.432.013-.022a.211.211,0,0,0-.178-.238l-.978-.149a1.9,1.9,0,0,0-1.255-1.833l10.843-4.848Zm44.359,79.046-.054.022.054-.025Zm20.317-59.405.785-.88.588-.165.2,1.481Zm1.144-2.735-.62.175-8.823-4.1,7.695-7.99.14-.032Zm-5.96-44.238-5.881-6.106,4.054-5.824.216-.016Zm-3.981-20.244-4.092.06,4.508-.108Zm-6.844-3.676-1.6-.006v-2.866l1.6-.1ZM503.6,301.532V254.215a48.434,48.434,0,0,0,3.619-5v50.932a2.915,2.915,0,0,0-2.745.562A5.452,5.452,0,0,0,503.6,301.532Z" transform="translate(44.025 173.676)" fill="#d1d3d4"/>
    <path id="Path_167" data-name="Path 167" d="M898.936,286.629H873.519V277.1h25.417Zm-38.592,0H834.927V277.1h25.417Zm-38.6,0H796.332V277.1h25.417Zm-38.592,0H757.74V277.1h25.417Zm-38.592,0H719.147V277.1h25.417Zm-38.592,0H680.555V277.1h25.417Zm-38.6,0H641.96V277.1h25.417Zm-38.592,0H603.368V277.1h25.417Zm-38.592,0H564.776V277.1h25.417Zm-38.6,0H526.18V277.1H551.6Zm-38.592,0H487.588V277.1h25.417Zm-38.6,0H448.993V277.1H474.41Zm-38.592,0H410.4V277.1h25.417Zm-38.592,0H371.809V277.1h25.417Zm-38.6,0H333.214V277.1H358.63Zm-38.592,0H294.621V277.1h25.417Zm-38.592,0H256.029V277.1h25.417Zm-38.6,0H217.434V277.1h25.417Z" transform="translate(-217.434 399.664)" fill="#fff"/>
    <path id="Path_168" data-name="Path 168" d="M217.434,219.164s19.352-17.658,120.876,5.547,194.438-9.293,301.588-9.582,314.344,79.65,314.344,79.65l-21.963,56.794H217.434Z" transform="translate(-217.434 259.536)" fill="#d1d3d4"/>
    <g id="Group_6" data-name="Group 6" transform="translate(55.481 466.468)">
      <rect id="Rectangle_3" data-name="Rectangle 3" width="73.514" height="22.964" transform="translate(64.086 6.299)" fill="#f15a29"/>
      <rect id="Rectangle_4" data-name="Rectangle 4" width="89.702" height="11.445" transform="translate(55.992)" fill="#f7941e"/>
      <rect id="Rectangle_5" data-name="Rectangle 5" width="73.514" height="22.964" transform="translate(237.275 6.299)" fill="#f15a29"/>
      <rect id="Rectangle_6" data-name="Rectangle 6" width="89.702" height="11.445" transform="translate(229.181)" fill="#f7941e"/>
      <path id="Rectangle_7" data-name="Rectangle 7" d="M14.228,0H362.658a14.228,14.228,0,0,1,14.228,14.228V150.133a14.229,14.229,0,0,1-14.229,14.229H14.229A14.229,14.229,0,0,1,0,150.133V14.228A14.228,14.228,0,0,1,14.228,0Z" transform="translate(0.001 17.78)" fill="#f15a29"/>
      <path id="Path_169" data-name="Path 169" d="M611.783,261.71v39.418a45.155,45.155,0,0,1-45.2,45.2H280.1a45.2,45.2,0,0,1-45.207-45.2V261.71A45.207,45.207,0,0,1,280.1,216.5H566.579A45.208,45.208,0,0,1,611.783,261.71Z" transform="translate(-234.897 -198.724)" fill="#f7941e"/>
      <path id="Path_170" data-name="Path 170" d="M407.759,261.71v73.953a45.205,45.205,0,0,1-45.2,45.2H328.611c40.635-7.832,44.594-25.569,47.205-32.953a17.609,17.609,0,0,0,.667-3.768c1.42-14.338-.667-33.121-.667-71.265,0-42.678-28.924-56.377-28.924-56.377h15.663A45.208,45.208,0,0,1,407.759,261.71Z" transform="translate(-30.873 -198.724)" fill="#e8e9ea" style="mix-blend-mode: multiply;isolation: isolate"/>
      <rect id="Rectangle_8" data-name="Rectangle 8" width="388.934" height="21.522" transform="translate(0.001 174.865)" fill="#2d2d2d"/>
      <path id="Path_182" data-name="Path 182" d="M602.524,300.289H259.745l-15.061-27.555h357.84Z" transform="translate(-213.59 -76.304)" fill="#414042"/>
      <g id="Group_5" data-name="Group 5" transform="translate(388.933 2.947)">
        <path id="Path_183" data-name="Path 183" d="M362.033,238.934a34.163,34.163,0,0,1,36.257-26.98c39.1,3.253,103.189,10.926,110,26.583l9.868,22.694H357.315Z" transform="translate(-357.315 -211.834)" fill="#201d57"/>
        <path id="Path_184" data-name="Path 184" d="M357.316,227.382v171.69H529.088a10.771,10.771,0,0,0,10.77-10.77V324.226c0-10.7-21.709-96.844-21.709-96.844Z" transform="translate(-357.313 -177.986)" fill="#03033d"/>
        <path id="Path_185" data-name="Path 185" d="M372.688,310.495h84.863a42.432,42.432,0,0,0-84.863,0Z" transform="translate(-323.847 -89.409)" fill="#231f20"/>
        <circle id="Ellipse_2" data-name="Ellipse 2" cx="35.029" cy="35.029" r="35.029" transform="translate(56.245 186.055)" fill="#414042"/>
        <circle id="Ellipse_3" data-name="Ellipse 3" cx="21.042" cy="21.042" r="21.042" transform="translate(70.233 200.043)" fill="#d1d3d4"/>
        <circle id="Ellipse_4" data-name="Ellipse 4" cx="14.197" cy="14.197" r="14.197" transform="translate(77.078 206.888)" fill="#bcbec0"/>
        <path id="Path_186" data-name="Path 186" d="M488.109,294.844v48.679H449.742s-11.393-24.34-42.43-24.34H376.275v-79.6l61.181,7.234,47.364,29.6S488.109,292.213,488.109,294.844Z" transform="translate(-316.037 -151.419)" fill="#201d57"/>
        <circle id="Ellipse_5" data-name="Ellipse 5" cx="6.916" cy="6.916" r="6.916" transform="translate(84.358 214.168)" fill="#414042"/>
        <path id="Path_187" data-name="Path 187" d="M486.172,295.808l-18.214-65.127H386.876A11.22,11.22,0,0,0,375.654,241.9v22.291a11.22,11.22,0,0,0,11.222,11.221h50.973a15.291,15.291,0,0,1,14.1,9.379l.686,1.639a15.293,15.293,0,0,0,14.1,9.376Z" transform="translate(-317.389 -170.804)" fill="#231f20"/>
        <path id="Path_188" data-name="Path 188" d="M376.9,239.2v22.291a7.283,7.283,0,0,0,7.276,7.275h50.97a19.2,19.2,0,0,1,17.744,11.793l.689,1.646a11.314,11.314,0,0,0,10.459,6.955h14.23L471.4,264.593l-9.137-32.67H384.172A7.283,7.283,0,0,0,376.9,239.2Z" transform="translate(-314.685 -168.1)" fill="#6d6e71"/>
        <path id="Path_189" data-name="Path 189" d="M377.786,233.445l43.78,35.32H433.2a19.2,19.2,0,0,1,17.744,11.793l.69,1.646a11.314,11.314,0,0,0,10.459,6.955h14.23l-6.869-24.565-46.166-32.67H382.234A7.225,7.225,0,0,0,377.786,233.445Z" transform="translate(-312.748 -168.1)" fill="#808285"/>
        <rect id="Rectangle_9" data-name="Rectangle 9" width="43.866" height="3.947" transform="translate(50.816 67.771) rotate(180)" fill="#262262"/>
        <rect id="Rectangle_10" data-name="Rectangle 10" width="43.866" height="3.947" transform="translate(50.816 75.008) rotate(180)" fill="#262262"/>
        <rect id="Rectangle_11" data-name="Rectangle 11" width="43.866" height="3.947" transform="translate(50.816 82.244) rotate(180)" fill="#262262"/>
        <rect id="Rectangle_12" data-name="Rectangle 12" width="43.866" height="3.947" transform="translate(50.816 89.481) rotate(180)" fill="#262262"/>
        <rect id="Rectangle_13" data-name="Rectangle 13" width="43.866" height="3.947" transform="translate(50.816 96.717) rotate(180)" fill="#262262"/>
        <rect id="Rectangle_14" data-name="Rectangle 14" width="43.866" height="3.947" transform="translate(50.816 103.954) rotate(180)" fill="#262262"/>
        <rect id="Rectangle_15" data-name="Rectangle 15" width="43.866" height="3.947" transform="translate(50.816 111.19) rotate(180)" fill="#262262"/>
        <rect id="Rectangle_16" data-name="Rectangle 16" width="43.866" height="3.947" transform="translate(50.816 118.426) rotate(180)" fill="#262262"/>
        <rect id="Rectangle_17" data-name="Rectangle 17" width="43.866" height="3.947" transform="translate(50.816 125.663) rotate(180)" fill="#262262"/>
        <rect id="Rectangle_18" data-name="Rectangle 18" width="43.866" height="3.947" transform="translate(50.816 132.899) rotate(180)" fill="#262262"/>
        <rect id="Rectangle_19" data-name="Rectangle 19" width="43.866" height="3.947" transform="translate(50.816 140.136) rotate(180)" fill="#262262"/>
        <rect id="Rectangle_20" data-name="Rectangle 20" width="43.866" height="3.947" transform="translate(50.816 147.372) rotate(180)" fill="#262262"/>
        <rect id="Rectangle_21" data-name="Rectangle 21" width="43.866" height="3.947" transform="translate(50.816 154.608) rotate(180)" fill="#262262"/>
        <rect id="Rectangle_22" data-name="Rectangle 22" width="43.866" height="3.947" transform="translate(50.816 161.845) rotate(180)" fill="#262262"/>
        <rect id="Rectangle_23" data-name="Rectangle 23" width="43.866" height="3.947" transform="translate(50.816 169.081) rotate(180)" fill="#262262"/>
        <rect id="Rectangle_24" data-name="Rectangle 24" width="6.881" height="9.996" transform="translate(182.545 209.868) rotate(180)" fill="#fedc00"/>
      </g>
      <path id="Path_190" data-name="Path 190" d="M313.58,310.495h84.863a42.432,42.432,0,0,0-84.863,0Z" transform="translate(-63.597 -86.462)" fill="#231f20"/>
      <circle id="Ellipse_6" data-name="Ellipse 6" cx="35.029" cy="35.029" r="35.029" transform="translate(257.384 189.002)" fill="#414042"/>
      <circle id="Ellipse_7" data-name="Ellipse 7" cx="21.042" cy="21.042" r="21.042" transform="translate(271.371 202.989)" fill="#d1d3d4"/>
      <circle id="Ellipse_8" data-name="Ellipse 8" cx="14.197" cy="14.197" r="14.197" transform="translate(278.216 209.834)" fill="#bcbec0"/>
      <circle id="Ellipse_9" data-name="Ellipse 9" cx="6.916" cy="6.916" r="6.916" transform="translate(285.497 217.115)" fill="#414042"/>
      <path id="Path_191" data-name="Path 191" d="M252.511,310.495h84.863a42.432,42.432,0,0,0-84.863,0Z" transform="translate(-196.55 -86.462)" fill="#231f20"/>
      <circle id="Ellipse_10" data-name="Ellipse 10" cx="35.029" cy="35.029" r="35.029" transform="translate(63.363 189.002)" fill="#414042"/>
      <circle id="Ellipse_11" data-name="Ellipse 11" cx="21.042" cy="21.042" r="21.042" transform="translate(77.351 202.989)" fill="#d1d3d4"/>
      <circle id="Ellipse_12" data-name="Ellipse 12" cx="14.197" cy="14.197" r="14.197" transform="translate(84.196 209.834)" fill="#bcbec0"/>
      <circle id="Ellipse_13" data-name="Ellipse 13" cx="6.916" cy="6.916" r="6.916" transform="translate(91.476 217.115)" fill="#414042"/>
    </g>
    <g id="Group_7" data-name="Group 7" transform="translate(-776.9 361.725)">
      <g id="Group_524" data-name="Group 524" transform="translate(926.641 167.574)">
        <path id="Path_2928" data-name="Path 2928" d="M924.249,161.9c.2.5.317.874.494,1.21,1.282,2.422,2.6,4.828,3.86,7.257.865,1.659,1.77,3.309,2.467,5.038a6.918,6.918,0,0,1-6.206,9.432c-2.983.181-5.459-.8-6.959-3.53a7.006,7.006,0,0,1-.5-5.88,33.416,33.416,0,0,1,2.859-5.7A49.707,49.707,0,0,0,924.249,161.9Zm.887,21.011a6.416,6.416,0,0,1-4.338-2.346,7.157,7.157,0,0,1-1.4-4.879,5.2,5.2,0,0,0,.484,5.772A5.089,5.089,0,0,0,925.135,182.907Z" transform="translate(-916.982 -161.896)" fill="#fff" style="isolation: isolate"/>
      </g>
      <g id="Group_525" data-name="Group 525" transform="translate(912.523 159.275)">
        <path id="Path_2929" data-name="Path 2929" d="M934.652,193.7c-3.923.237-7.187-1.054-9.163-4.651a9.223,9.223,0,0,1-.652-7.741,44.21,44.21,0,0,1,3.762-7.5,65.242,65.242,0,0,0,5.246-10.3c.266.659.418,1.149.652,1.593,1.687,3.188,3.416,6.355,5.082,9.556q.484.936.972,1.871l10.635-10.632a22.679,22.679,0,1,0-.348,32.422l-9.056-8.543A8.922,8.922,0,0,1,934.652,193.7Z" transform="translate(-912.523 -159.275)" fill="#201d57" style="isolation: isolate"/>
      </g>
      <text id="FUEL" transform="translate(1029.392 195.673)" fill="#fff" font-size="31" font-family="AeonisLTPro-Medium, Aeonis LT Pro" font-weight="500" letter-spacing="0.04em" style="isolation: isolate"><tspan x="0" y="0">FUEL</tspan></text>
      <text id="FUEL_DOORSTEP" data-name="FUEL@ DOORSTEP" transform="translate(966.9 217.275)" fill="#fff" font-size="16" font-family="AeonisLTW04-Thin, AeonisLTW04" font-weight="200" letter-spacing="0.06em" style="isolation: isolate"><tspan x="0" y="0">FUEL@ DOORSTEP</tspan></text>
      <g id="Group_526" data-name="Group 526" transform="translate(944.7 175.028)">
        <path id="Path_2930" data-name="Path 2930" d="M930.014,164.361h-7.328v12.213l7.328,7.328Z" transform="translate(-922.686 -164.01)" fill="#201d57"/>
        <path id="Path_2931" data-name="Path 2931" d="M941.057,177.037l-5.018-12.676h-9.752V186.4h6.367V173.662L937.7,186.4h9.725V164.361h-6.367Z" transform="translate(-914.885 -164.01)" fill="#201d57"/>
        <path id="Path_2932" data-name="Path 2932" d="M948.648,180.973a8.106,8.106,0,0,1-.918.383,9.772,9.772,0,0,1-1.08.307,4.6,4.6,0,0,1-.959.114,3.48,3.48,0,0,1-3.16-1.406c-.693-1.038-1.042-2.789-1.042-5.2a7.217,7.217,0,0,1,1.076-4.442,3.737,3.737,0,0,1,3.125-1.263,4.565,4.565,0,0,1,1.941.38c.62.282,1.092.522,1.418.712l1.194.706v-5.5l-.345-.238a6.816,6.816,0,0,0-.627-.323,8.219,8.219,0,0,0-1.267-.434,15.6,15.6,0,0,0-1.821-.364,13.549,13.549,0,0,0-6.2.488,8.466,8.466,0,0,0-3.15,2.042,9.5,9.5,0,0,0-2.09,3.442,14.258,14.258,0,0,0-.738,4.8,22.317,22.317,0,0,0,.5,5.022,9.529,9.529,0,0,0,1.694,3.752,7.359,7.359,0,0,0,3.059,2.305,11.472,11.472,0,0,0,4.382.754,17.494,17.494,0,0,0,2.254-.142,18.309,18.309,0,0,0,1.887-.348,12.829,12.829,0,0,0,1.412-.418,4.335,4.335,0,0,0,.871-.4l.351-.234v-6.1l-1.349,1.352A2,2,0,0,1,948.648,180.973Z" transform="translate(-898.154 -164.25)" fill="#201d57"/>
        <path id="Path_2933" data-name="Path 2933" d="M952.076,164.361v7.882h-4.706v-7.882h-7.3V186.4h7.3v-8.814h4.706V186.4H959.4V164.361Z" transform="translate(-885.021 -164.01)" fill="#201d57"/>
      </g>
    </g>
  </g>
</svg>
