<svg xmlns="http://www.w3.org/2000/svg" width="259.989" height="81" viewBox="0 0 259.989 81">
  <g id="Group_553" data-name="Group 553" transform="translate(-912.523 -159.275)">
    <g id="Group_524" data-name="Group 524" transform="translate(931.488 170.423)">
      <path id="Path_2928" data-name="Path 2928" d="M926.743,161.9c.272.672.426,1.174.664,1.625,1.723,3.254,3.488,6.486,5.185,9.748,1.161,2.229,2.378,4.445,3.313,6.767a9.293,9.293,0,0,1-8.336,12.67c-4.007.243-7.333-1.076-9.349-4.742a9.411,9.411,0,0,1-.668-7.9,44.886,44.886,0,0,1,3.84-7.656A66.772,66.772,0,0,0,926.743,161.9Zm1.191,28.224a8.619,8.619,0,0,1-5.827-3.152,9.614,9.614,0,0,1-1.884-6.554,6.984,6.984,0,0,0,.651,7.754A6.836,6.836,0,0,0,927.934,190.12Z" transform="translate(-916.982 -161.896)" fill="#fff" style="isolation: isolate"/>
    </g>
    <g id="Group_525" data-name="Group 525" transform="translate(912.523 159.275)">
      <path id="Path_2929" data-name="Path 2929" d="M942.249,205.516c-5.27.319-9.655-1.416-12.309-6.248a12.39,12.39,0,0,1-.876-10.4,59.393,59.393,0,0,1,5.053-10.08,87.631,87.631,0,0,0,7.047-13.84c.357.885.561,1.544.876,2.139,2.267,4.283,4.589,8.536,6.826,12.836q.651,1.257,1.306,2.514l14.286-14.282a30.465,30.465,0,1,0-.468,43.553l-12.164-11.475A11.984,11.984,0,0,1,942.249,205.516Z" transform="translate(-912.523 -159.275)" fill="#fff" style="isolation: isolate"/>
    </g>
    <text id="FUEL" transform="translate(1069.512 209.899)" fill="#fff" font-size="43" font-family="AeonisLTPro-Medium, Aeonis LT Pro" font-weight="500" letter-spacing="0.04em" style="isolation: isolate"><tspan x="0" y="0">FUEL</tspan></text>
    <text id="FUEL_DOORSTEP" data-name="FUEL@ DOORSTEP" transform="translate(1012.9 236.275)" fill="#fff" font-size="18" font-family="AeonisLTW04-Thin, AeonisLTW04" font-weight="200" letter-spacing="0.06em" style="isolation: isolate"><tspan x="0" y="0">FUEL@ DOORSTEP</tspan></text>
    <g id="Group_526" data-name="Group 526" transform="translate(955.747 180.437)">
      <path id="Path_2930" data-name="Path 2930" d="M932.529,164.361h-9.844v16.406l9.844,9.844Z" transform="translate(-922.686 -163.889)" fill="#fff"/>
      <path id="Path_2931" data-name="Path 2931" d="M946.127,181.389l-6.741-17.027h-13.1v29.6h8.552V176.855l6.778,17.111H954.68v-29.6h-8.552Z" transform="translate(-910.972 -163.889)" fill="#fff"/>
      <path id="Path_2932" data-name="Path 2932" d="M953.673,186.714a10.9,10.9,0,0,1-1.233.515,13.132,13.132,0,0,1-1.45.413,6.175,6.175,0,0,1-1.289.153c-2.007,0-3.4-.617-4.245-1.888-.932-1.395-1.4-3.747-1.4-6.988,0-2.756.485-4.759,1.446-5.967a5.019,5.019,0,0,1,4.2-1.7,6.132,6.132,0,0,1,2.607.51c.833.379,1.467.7,1.905.957l1.6.949v-7.392l-.464-.319a9.149,9.149,0,0,0-.842-.434,11.049,11.049,0,0,0-1.7-.583,20.95,20.95,0,0,0-2.446-.489,18.2,18.2,0,0,0-8.324.655,11.372,11.372,0,0,0-4.232,2.743A12.765,12.765,0,0,0,935,172.474a19.152,19.152,0,0,0-.991,6.444,29.987,29.987,0,0,0,.676,6.746,12.8,12.8,0,0,0,2.276,5.04,9.886,9.886,0,0,0,4.109,3.1,15.411,15.411,0,0,0,5.887,1.012,23.506,23.506,0,0,0,3.028-.191,24.605,24.605,0,0,0,2.535-.468,17.215,17.215,0,0,0,1.9-.561,5.82,5.82,0,0,0,1.17-.536l.472-.315v-8.187l-1.812,1.816A2.683,2.683,0,0,1,953.673,186.714Z" transform="translate(-885.844 -164.25)" fill="#fff"/>
      <path id="Path_2933" data-name="Path 2933" d="M956.2,164.361v10.587h-6.322V164.361h-9.8v29.6h9.8v-11.84H956.2v11.84h9.844v-29.6Z" transform="translate(-866.122 -163.889)" fill="#fff"/>
    </g>
  </g>
</svg>
