<svg id="Logo" xmlns="http://www.w3.org/2000/svg" viewBox="0 0 150 50"><defs><style>.cls-1,.cls-3{fill:#201d58;}.cls-2,.cls-4{fill:#f6871f;}.cls-3,.cls-4{fill-rule:evenodd;}</style></defs><path class="cls-1" d="M148.77,39.55a2,2,0,0,0-1.36-.41h-1.63v3.24h1.63c1.23,0,1.81-.54,1.81-1.6A1.46,1.46,0,0,0,148.77,39.55Zm.38,2.73a2.38,2.38,0,0,1-1.67.54h-1.7v2.39a.08.08,0,0,1-.07.07h-.34c-.07,0-.07,0-.07-.07V38.74a.07.07,0,0,1,.07-.07h2.14a2.3,2.3,0,0,1,1.67.54,2,2,0,0,1,.58,1.54A1.87,1.87,0,0,1,149.15,42.28Zm-5.28,3h-3.82a.08.08,0,0,1-.07-.07V38.77a.08.08,0,0,1,.07-.07h3.68c.07,0,.07,0,.07.07v.34a.08.08,0,0,1-.07.07H140.5v2.55h3a.08.08,0,0,1,.07.07v.31a.08.08,0,0,1-.07.07h-3v2.65h3.37a.08.08,0,0,1,.07.07v.34A.08.08,0,0,1,143.87,45.31Zm-5-6.17h-2.07v6.1a.08.08,0,0,1-.07.07h-.34c-.07,0-.07,0-.07-.07v-6.1h-2.08s-.07,0-.07-.06v-.34a.08.08,0,0,1,.07-.07h4.67c.07,0,.07,0,.07.07v.34S139,39.14,138.89,39.14Zm-5.58.52s-.07.06-.1,0a3.14,3.14,0,0,0-2-.65,2.28,2.28,0,0,0-1.22.31,1,1,0,0,0-.48.88,1.05,1.05,0,0,0,.44.89,5,5,0,0,0,1.37.55,5,5,0,0,1,1.73.71,1.39,1.39,0,0,1,.55,1.23A1.61,1.61,0,0,1,133,45a2.85,2.85,0,0,1-1.7.48,3.53,3.53,0,0,1-1.23-.21,4.18,4.18,0,0,1-1.09-.68.07.07,0,0,1,0-.1l.21-.27a.1.1,0,0,1,.1,0,3.28,3.28,0,0,0,2,.79,2.13,2.13,0,0,0,1.29-.34,1.12,1.12,0,0,0,.51-1,1,1,0,0,0-.44-.89,5.06,5.06,0,0,0-1.46-.54,4.19,4.19,0,0,1-1.64-.68,1.55,1.55,0,0,1-.58-1.23,1.34,1.34,0,0,1,.65-1.23,3,3,0,0,1,1.63-.44,3.37,3.37,0,0,1,2.15.75.13.13,0,0,1,0,.1Zm-6.24,2.07a1.28,1.28,0,0,0,.45-1.09,1.41,1.41,0,0,0-.45-1.12,1.83,1.83,0,0,0-1.29-.38h-1.64v3h1.64A2.06,2.06,0,0,0,127.07,41.73Zm1,3.58h-.45a.13.13,0,0,1-.1,0l-2-2.66h-1.4v2.66a.06.06,0,0,1-.06.06h-.38s-.07,0-.07-.06V38.8s0-.06.07-.06h2a2.48,2.48,0,0,1,1.66.51,1.75,1.75,0,0,1,.62,1.43,1.81,1.81,0,0,1-.51,1.33,2.14,2.14,0,0,1-1.4.58l2,2.65S128.16,45.31,128.1,45.31Zm-6.48-4.43a1.82,1.82,0,0,0-.51-1.36,2.26,2.26,0,0,0-2.86,0,1.82,1.82,0,0,0-.51,1.36V43.1a1.59,1.59,0,0,0,.54,1.29,2,2,0,0,0,1.44.51,1.94,1.94,0,0,0,1.43-.51,1.72,1.72,0,0,0,.51-1.29V40.88Zm-.17,3.89a2.59,2.59,0,0,1-1.77.64,2.44,2.44,0,0,1-1.8-.64,2.17,2.17,0,0,1-.69-1.64V40.92a2.28,2.28,0,0,1,.69-1.71,2.44,2.44,0,0,1,1.8-.64,2.48,2.48,0,0,1,1.81.64,2.31,2.31,0,0,1,.68,1.71v2.21A2.3,2.3,0,0,1,121.45,44.77Zm-6.06-3.89a1.82,1.82,0,0,0-.51-1.36,2.26,2.26,0,0,0-2.86,0,1.82,1.82,0,0,0-.51,1.36V43.1a1.59,1.59,0,0,0,.54,1.29,2.26,2.26,0,0,0,2.86,0,1.72,1.72,0,0,0,.51-1.29V40.88Zm-.14,3.89a2.59,2.59,0,0,1-1.77.64,2.44,2.44,0,0,1-1.8-.64,2.17,2.17,0,0,1-.69-1.64V40.92a2.28,2.28,0,0,1,.69-1.71,2.44,2.44,0,0,1,1.8-.64,2.48,2.48,0,0,1,1.81.64,2.31,2.31,0,0,1,.68,1.71v2.21A2.42,2.42,0,0,1,115.25,44.77ZM109.19,41a1.88,1.88,0,0,0-.48-1.36,1.68,1.68,0,0,0-1.33-.48h-1.8v5.69h1.8a1.82,1.82,0,0,0,1.33-.47,1.9,1.9,0,0,0,.48-1.37Zm-.1,3.72a2.32,2.32,0,0,1-1.71.61h-2.21a.08.08,0,0,1-.07-.07V38.77a.08.08,0,0,1,.07-.07h2.21a2.37,2.37,0,0,1,1.71.61A2.32,2.32,0,0,1,109.7,41v2A2.32,2.32,0,0,1,109.09,44.7ZM98.87,41.05a3.08,3.08,0,0,0-1.2-.17,1.09,1.09,0,0,0-.88.34,1.27,1.27,0,0,0-.34.89v.75a1.25,1.25,0,0,0,.34,1,1.19,1.19,0,0,0,.88.34,1.22,1.22,0,0,0,.79-.24.82.82,0,0,0,.37-.61V41.05Zm2.18,3.1a1.09,1.09,0,0,1-.92.41,1.55,1.55,0,0,1-.68-.17,1.37,1.37,0,0,1-.45-.51,1.13,1.13,0,0,1-.54.54,1.59,1.59,0,0,1-.82.21,1.63,1.63,0,0,1-1.19-.48A1.53,1.53,0,0,1,96,42.93v-.75a1.62,1.62,0,0,1,.44-1.2,1.69,1.69,0,0,1,1.23-.44,3.74,3.74,0,0,1,1.6.31s.07,0,.07.07v2.35a1,1,0,0,0,.24.71.84.84,0,0,0,.61.27c.51,0,.79-.37.79-1.09V40.44a4.36,4.36,0,0,0-3.34-1.36,3.53,3.53,0,0,0-2.46.71A2.9,2.9,0,0,0,94.37,42v1a3.14,3.14,0,0,0,.75,2.25A2.8,2.8,0,0,0,97.3,46a3.94,3.94,0,0,0,2-.45c.06,0,.1,0,.1,0l.07.24a.12.12,0,0,1,0,.1,3.25,3.25,0,0,1-1,.34,4.67,4.67,0,0,1-1.15.13,3.22,3.22,0,0,1-2.49-.92A3.52,3.52,0,0,1,93.93,43V42a3.2,3.2,0,0,1,.88-2.45,4,4,0,0,1,2.8-.85,4.72,4.72,0,0,1,3.74,1.6.11.11,0,0,1,0,.1V43.1A1.56,1.56,0,0,1,101.05,44.15ZM91.3,45.31H87.8a.07.07,0,0,1-.07-.07V38.77a.08.08,0,0,1,.07-.07h.37a.08.08,0,0,1,.07.07v6.1H91.3a.07.07,0,0,1,.07.07v.34S91.37,45.31,91.3,45.31Zm-5,0H82.52a.07.07,0,0,1-.07-.07V38.77a.08.08,0,0,1,.07-.07h3.67c.07,0,.07,0,.07.07v.34a.08.08,0,0,1-.07.07H83v2.55h3a.08.08,0,0,1,.07.07v.31a.08.08,0,0,1-.07.07H83v2.65h3.37a.08.08,0,0,1,.07.07v.34A.07.07,0,0,1,86.33,45.31Zm-6.23-.54a2.59,2.59,0,0,1-3.41,0A2.41,2.41,0,0,1,76,43.06V38.74a.08.08,0,0,1,.07-.07h.38a.07.07,0,0,1,.06.07V43A2,2,0,0,0,77,44.42a1.68,1.68,0,0,0,1.33.52,1.79,1.79,0,0,0,1.36-.52A2,2,0,0,0,80.2,43V38.74a.07.07,0,0,1,.07-.07h.37c.07,0,.07,0,.07.07v4.32A2.21,2.21,0,0,1,80.1,44.77Zm-5.25-5.63H71.51V41.8h3a.08.08,0,0,1,.07.07v.31a.07.07,0,0,1-.07.06h-3v2.93a.07.07,0,0,1-.07.07h-.37a.08.08,0,0,1-.07-.07V38.7a.08.08,0,0,1,.07-.07h3.78c.07,0,.07,0,.07.07V39C74.92,39.11,74.92,39.14,74.85,39.14Z"/><path class="cls-1" d="M83.09,32.6v-7H79.25v7h-6.1v-17h6.1v6.23h3.84V15.64h6.1v17ZM67.87,29.27a5.1,5.1,0,0,0,1.8-.38,3.77,3.77,0,0,0,1.23-.65v3.68a7.07,7.07,0,0,1-1.94.62,15.85,15.85,0,0,1-3.37.34c-2.76,0-4.77-.75-6-2.29s-1.87-3.81-1.87-6.88A8.34,8.34,0,0,1,60,17.48a7.83,7.83,0,0,1,5.73-2.18,13.09,13.09,0,0,1,3.2.34,8,8,0,0,1,1.8.61v3.61a4.45,4.45,0,0,0-1.26-.64,4.39,4.39,0,0,0-1.6-.28c-2.59,0-3.85,1.6-3.85,4.77C64,27.43,65.28,29.27,67.87,29.27ZM46.24,32.6,42.52,20.24V32.6H37.45v-17h8.92l3.68,12.3V15.64h5.08v17ZM28,25.93V15.64h6.1v17Z"/><path class="cls-2" d="M140,32.6V15.81h3.06V30.05H150V32.6Zm-2.69-2.52V32.6H127.18V15.81H137v2.52h-6.71v4.33h6.34v2.48h-6.34v4.94ZM117,32.88c-3.89,0-6.41-2.18-6.41-7.46V15.78h3.07v9.81c0,3.3,1.36,4.8,3.44,4.8s3.54-1.53,3.54-4.8V15.78h3.07v9.6C123.67,30.59,121,32.88,117,32.88ZM101,18.3v4.63h6.2v2.52H101v7.12H97.88V15.78h9.71V18.3Z"/><path class="cls-3" d="M17.45,40.13h-.1S1.13,39.72-.16,21.53c0,0-.17-7.59,4.19-12.12A19,19,0,0,1,15.3,3.55s10-1.5,15.88,5.28L24.09,16a23.1,23.1,0,0,1-4.22-4.46A14.19,14.19,0,0,1,18,6.92S17.42,10,12.41,16a8,8,0,0,0-1.23,9.91,7.92,7.92,0,0,0,6.17,4c1.67.17,5,0,6.71-2.76l7.05,7.73s-5.18,5.38-12.71,5.32V31.72H20a.48.48,0,0,0,.37-.48s0-.48-.37-.48H15.85s-.38,0-.38.48c0,0,0,.48.38.48h1.6Z"/><path class="cls-4" d="M14.45,21.12c-2.93,4.33,2.93,5.62,2.93,5.62C13,24.43,14.45,21.12,14.45,21.12Zm9.34,2.49a5.91,5.91,0,0,1-10.43,2,5.76,5.76,0,0,1-.47-6.37,72.75,72.75,0,0,1,5.21-7.15l4.12,5.31C25,21.19,23.79,23.61,23.79,23.61Z"/></svg>